HIERARCHY
ROOT hip
{
  OFFSET 0 0 0
  CHANNELS 6 Xposition Yposition Zposition Zrotation Yrotation Xrotation
  JOINT abdomen
  {
    OFFSET 0 20.6881 -0.73152
    CHANNELS 3 Zrotation Xrotation Yrotation
    JOINT chest
    {
      OFFSET 0 11.7043 -0.48768
      CHANNELS 3 Zrotation Xrotation Yrotation
      JOINT neck
      {
        OFFSET 0 22.1894 -2.19456
        CHANNELS 3 Zrotation Xrotation Yrotation
        JOINT head
        {
          OFFSET -0.24384 7.07133 1.2192
          CHANNELS 3 Zrotation Xrotation Yrotation
          JOINT leftEye
          {
            OFFSET 4.14528 8.04674 8.04672
            CHANNELS 3 Zrotation Xrotation Yrotation
            End Site
            {
              OFFSET 1 0 0
            }
          }
          JOINT rightEye
          {
            OFFSET -3.6576 8.04674 8.04672
            CHANNELS 3 Zrotation Xrotation Yrotation
            End Site
            {
              OFFSET 1 0 0
            }
          }
        }
      }
      JOINT rCollar
      {
        OFFSET -2.68224 19.2634 -4.8768
        CHANNELS 3 Zrotation Xrotation Yrotation
        JOINT rShldr
        {
          OFFSET -8.77824 -1.95073 1.46304
          CHANNELS 3 Zrotation Xrotation Yrotation
          JOINT rForeArm
          {
            OFFSET -28.1742 -1.7115 0.48768
            CHANNELS 3 Zrotation Xrotation Yrotation
            JOINT rHand
            {
              OFFSET -22.5879 0.773209 7.07136
              CHANNELS 3 Zrotation Xrotation Yrotation
              JOINT rThumb1
              {
                OFFSET -1.2192 -0.487915 3.41376
                CHANNELS 3 Zrotation Xrotation Yrotation
                JOINT rThumb2
                {
                  OFFSET -3.37035 -0.52449 3.41376
                  CHANNELS 3 Zrotation Xrotation Yrotation
                  End Site
                  {
                    OFFSET -1.78271 -1.18214 1.43049
                  }
                }
              }
              JOINT rIndex1
              {
                OFFSET -7.75947 0.938293 5.60832
                CHANNELS 3 Zrotation Xrotation Yrotation
                JOINT rIndex2
                {
                  OFFSET -2.54057 -0.884171 1.56538
                  CHANNELS 3 Zrotation Xrotation Yrotation
                  End Site
                  {
                    OFFSET -1.62519 -0.234802 1.16502
                  }
                }
              }
              JOINT rMid1
              {
                OFFSET -8.24714 1.18213 3.41376
                CHANNELS 3 Zrotation Xrotation Yrotation
                JOINT rMid2
                {
                  OFFSET -3.10165 -0.590103 1.0647
                  CHANNELS 3 Zrotation Xrotation Yrotation
                  End Site
                  {
                    OFFSET -2.48547 -0.328903 0.83742
                  }
                }
              }
              JOINT rRing1
              {
                OFFSET -8.82822 0.546677 1.51678
                CHANNELS 3 Zrotation Xrotation Yrotation
                JOINT rRing2
                {
                  OFFSET -2.60934 -0.819778 -0.0198488
                  CHANNELS 3 Zrotation Xrotation Yrotation
                  End Site
                  {
                    OFFSET -2.33842 -0.294052 0.168128
                  }
                }
              }
              JOINT rPinky1
              {
                OFFSET -8.27202 -0.0477905 -0.4584
                CHANNELS 3 Zrotation Xrotation Yrotation
                JOINT rPinky2
                {
                  OFFSET -1.82734 -0.647385 -0.700984
                  CHANNELS 3 Zrotation Xrotation Yrotation
                  End Site
                  {
                    OFFSET -1.69225 -0.51767 -0.607171
                  }
                }
              }
            }
          }
        }
      }
      JOINT lCollar
      {
        OFFSET 2.68224 19.2634 -4.8768
        CHANNELS 3 Zrotation Xrotation Yrotation
        JOINT lShldr
        {
          OFFSET 8.77824 -1.95073 1.46304
          CHANNELS 3 Zrotation Xrotation Yrotation
          JOINT lForeArm
          {
            OFFSET 28.1742 -1.7115 0.48768
            CHANNELS 3 Zrotation Xrotation Yrotation
            JOINT lHand
            {
              OFFSET 22.5879 0.773209 7.07136
              CHANNELS 3 Zrotation Xrotation Yrotation
              JOINT lThumb1
              {
                OFFSET 1.2192 -0.487915 3.41376
                CHANNELS 3 Zrotation Xrotation Yrotation
                JOINT lThumb2
                {
                  OFFSET 3.37035 -0.52449 3.41376
                  CHANNELS 3 Zrotation Xrotation Yrotation
                  End Site
                  {
                    OFFSET 1.78271 -1.18214 1.43049
                  }
                }
              }
              JOINT lIndex1
              {
                OFFSET 7.75947 0.938293 5.60832
                CHANNELS 3 Zrotation Xrotation Yrotation
                JOINT lIndex2
                {
                  OFFSET 2.54057 -0.884171 1.56538
                  CHANNELS 3 Zrotation Xrotation Yrotation
                  End Site
                  {
                    OFFSET 1.62519 -0.234802 1.16502
                  }
                }
              }
              JOINT lMid1
              {
                OFFSET 8.24714 1.18213 3.41376
                CHANNELS 3 Zrotation Xrotation Yrotation
                JOINT lMid2
                {
                  OFFSET 3.10165 -0.590103 1.0647
                  CHANNELS 3 Zrotation Xrotation Yrotation
                  End Site
                  {
                    OFFSET 2.48547 -0.328903 0.83742
                  }
                }
              }
              JOINT lRing1
              {
                OFFSET 8.82822 0.546677 1.51678
                CHANNELS 3 Zrotation Xrotation Yrotation
                JOINT lRing2
                {
                  OFFSET 2.60934 -0.819778 -0.0198488
                  CHANNELS 3 Zrotation Xrotation Yrotation
                  End Site
                  {
                    OFFSET 2.33842 -0.294052 0.168128
                  }
                }
              }
              JOINT lPinky1
              {
                OFFSET 8.27202 -0.0477905 -0.4584
                CHANNELS 3 Zrotation Xrotation Yrotation
                JOINT lPinky2
                {
                  OFFSET 1.82734 -0.647385 -0.700984
                  CHANNELS 3 Zrotation Xrotation Yrotation
                  End Site
                  {
                    OFFSET 1.69225 -0.51767 -0.607171
                  }
                }
              }
            }
          }
        }
      }
    }
  }
  JOINT rButtock
  {
    OFFSET -8.77824 4.35084 1.2192
    CHANNELS 3 Zrotation Xrotation Yrotation
    JOINT rThigh
    {
      OFFSET 0 -1.70687 -2.19456
      CHANNELS 3 Zrotation Xrotation Yrotation
      JOINT rShin
      {
        OFFSET 0 -36.8199 0.73152
        CHANNELS 3 Zrotation Xrotation Yrotation
        JOINT rFoot
        {
          OFFSET 0.73152 -45.1104 -5.12064
          CHANNELS 3 Zrotation Xrotation Yrotation
          End Site
          {
            OFFSET -1.1221 -3.69964 12.103
          }
        }
      }
    }
  }
  JOINT lButtock
  {
    OFFSET 8.77824 4.35084 1.2192
    CHANNELS 3 Zrotation Xrotation Yrotation
    JOINT lThigh
    {
      OFFSET 0 -1.70687 -2.19456
      CHANNELS 3 Zrotation Xrotation Yrotation
      JOINT lShin
      {
        OFFSET 0 -36.8199 0.73152
        CHANNELS 3 Zrotation Xrotation Yrotation
        JOINT lFoot
        {
          OFFSET -0.73152 -45.1104 -5.12064
          CHANNELS 3 Zrotation Xrotation Yrotation
          End Site
          {
            OFFSET 1.1221 -3.69964 12.103
          }
        }
      }
    }
  }
}
MOTION
Frames:	4
Frame Time:	0.03333
-1.4134773053228855 33.54431986808777 0.05117504624649882 -2.7492646928250837 2.4275890364571056 1.371449905146139 -0.06734209003918204 8.592966225918309 1.8967862211948536 2.202443589855271 -4.239337054607773 0.674153118015187 -2.9086437420127464 7.62914201043853 -0.8219198851184758 4.393779584572809 -13.600503194213879 -2.0153672698095604 0.3883957189450132 0.5941329695768448 -1.11413362722331 -0.5591203526743016 0.9298612065535955 0.4307569257034025 0.4803144838043407 0.986073343257683 0.7687708748137274 23.947232333880617 16.75232813766211 8.34122765122644 -12.410378589832298 -15.335401979248381 33.493984104746076 -2.201740934144406 -5.544686950287468 -2.3593738027820725 0.5618829507501603 0.3521307495055512 0.6396545795693931 -0.05484647239605528 0.7896795779670174 1.2561270702089398 -0.09845225434705464 0.04509037425991187 0.12372387423482248 3.9477725006392075 1.779708027640961 0.9569837810260103 0.6492584125118128 -0.09989663925331399 0.1948470209283487 1.6828420713884285 1.4862224829683293 -0.971783306853547 0.19079690551351627 -0.3246038064899304 0.02179868047070127 5.076202994455824 -0.6423567731597793 -0.8801982607681981 -0.1188272022290919 0.1950614515156901 1.1039154507815594 1.381378332156693 0.3603397030729809 -0.2969197424429729 0.4731699992108016 0.7819071428566602 0.23403517793044398 -30.214137510589712 16.523405809892672 -11.678703966504791 12.499655992473535 -14.654232335964887 -31.220787865939116 2.1402730735956994 -5.895061567443959 2.499087456688799 0.9241249148678425 0.12329502640035295 0.5004013231014077 0.23388128523070714 1.1641833324704594 0.36489538588852655 0.13090944668508744 -0.10122210949890637 -0.6029938593644669 -3.8000005041723353 2.8986902354013337 -0.09678670204577645 0.8274946001416756 0.6936672886390307 -0.9112075330434675 -1.2400704694090032 -1.0574687770432973 -1.1768136329062822 -0.2720138044800652 0.49727480400883445 0.28078470118928717 -4.910129932994725 -0.712290546463011 0.2928853417993168 0.7446202864039143 -0.963178228994683 -0.7109693851062896 -1.0889911672799641 0.653218588209098 -0.09418363957984789 -0.8068001941735947 0.6217423551101817 -0.31607492792899433 -15.605638413759936 -18.426774625900126 -14.564720999344578 -2.758468799618499 31.653999444236344 3.608842719210719 -1.7892297382307818 -5.473325560725997 -4.690210648325008 0.7050951556158142 -1.2874496774123836 0.09511921541358097 18.25594134947435 -18.44837509915029 16.233863845692078 2.3908404842883213 31.317318929478905 -2.6298883540588935 3.4416469454048 -4.317110711139415 6.654631110228621
-2.504376880824566 39.96433913707733 0.04637644160538912 -3.4653822796574176 3.0726101170017186 1.462979776109599 -0.5440707245292661 10.071072950048782 2.3214032870820906 2.454176615018438 -5.546719785339192 0.8297723081473162 -3.0782742648143633 9.363441446373365 -1.3780067800276454 5.3193000991871555 -16.105316270417852 -2.7767982525864627 0.3253038208385774 0.31802422656551893 -0.7962335713624678 -0.2951896768705498 0.7442540708705253 0.4216646632576462 0.39269703057482874 0.6505844830670001 0.5753609950558581 29.452506531336173 19.953391914836967 9.99901616185244 -14.920869260783846 -18.374837867451348 40.71164990637365 -2.6808996218751338 -6.897311146533759 -2.9056235177391314 0.4275740041893237 0.1803522122512445 0.466714776754052 -0.24095482657032802 0.7201603117690408 1.1098858898897968 -0.008722645157995522 -0.05089312688794017 0.09296030200668837 4.815051992200855 2.5815447020003663 0.865624984956918 0.6165986356957803 -0.26901825960091214 0.2468308436493753 1.79896275779805 1.3435302262532425 -0.8187667923211629 0.015335055347148003 -0.3261307539758249 0.06859752416535535 6.270488891589233 -0.3905825534181809 -0.7596316014565743 -0.055642229455001434 0.04077641610796124 0.8674550487676583 1.539132543373833 0.09863353450453766 -0.26283808566038774 0.3779285607636744 0.6692656907772198 0.1401532672932667 -36.48444241395818 19.963951387293807 -14.82973063159378 14.95541635760577 -17.662467920039237 -38.33673166025769 2.797469179779272 -7.637717312941481 2.892541144157618 0.6928022558528192 0.026302178039646407 0.28239102294385665 0.15457649238621798 0.9165427645588937 0.2601514467586191 0.22363209279321375 -0.13282919674932384 -0.409025184755126 -4.557207228390997 3.541413170733649 -0.16103537006139063 0.6474161290657605 0.6883815759950871 -0.8494538717666782 -1.6086297181787128 -0.6228610653910358 -0.8611247440675259 -0.3529999177578617 0.2938848972956658 -0.05507096150416656 -5.974442025977846 -0.3694705987762301 0.09663330293392884 0.8240479159317579 -0.8103138996147432 -0.5512856988094739 -1.566759484627771 0.29876485401422836 0.10963958393921984 -0.5870764770297224 0.6173866687712706 -0.2672394222089469 -19.206423644184156 -22.419337799568982 -17.578413904565767 -3.5278339008900175 38.55852156298634 4.189773786895575 -2.4353092846533353 -6.600211578016544 -5.984854222480708 0.6286280929280537 -0.9464958121120441 -0.023128167788000326 22.587421924853828 -21.966352823624568 19.56026330168396 2.903762291190303 38.38776000354685 -3.5436741767923348 3.912574828298839 -5.519966788133899 8.201531499679461
-3.266444616019726 45.208919048309326 0.042136909905821085 -4.1468507437171 3.514790160565997 1.6749075260069892 -0.9679872157789009 11.24443627020715 2.684899124520999 2.6040681045621294 -6.617116296212326 0.9636062897565724 -3.33577047553314 10.811026616423991 -1.8209724020681815 6.036033683705259 -18.176992900405466 -3.321181831796227 0.2962600155382584 0.10973029738913408 -0.5360959984256002 -0.18805346398384545 0.5599984055086185 0.3852257641181868 0.3088472270853721 0.41238334331009796 0.43537231931333287 33.96498711972099 22.498936824156313 11.41014092833989 -16.972596615753144 -20.954354430155043 46.67539542922444 -3.1122785750406834 -8.08874031704681 -3.4060290029870646 0.2627836842708657 0.027812476939439033 0.3049706144837139 -0.28308610141361124 0.6464132118356793 0.9852567087650433 0.011849110889715969 -0.11040856719022807 0.08541811897655467 5.52913887841558 3.2086843472978863 0.7549228263540851 0.5666005303933763 -0.3547352126938681 0.2133053937168966 1.9663354761921545 1.245375178516576 -0.6284367409095876 -0.11886855689008222 -0.3472091980021603 0.0611373567661147 7.174241166431925 -0.14236515468686656 -0.654535480697588 0.02310411538355983 -0.06632906092747809 0.6912878214869276 1.7049749792287374 -0.0917590024657727 -0.21068038660021673 0.30385190420285985 0.532768255556776 0.06658714069248407 -41.56044775981489 22.693207894718984 -17.54487426064642 16.922504008380272 -20.13640512610017 -44.22796447978503 3.349219544895718 -9.10643850337871 3.1609058933931777 0.5641976378268541 0.020955927508098264 0.1816967456615321 0.09673770344260954 0.6967729969989768 0.18564592902312174 0.2518623718705739 -0.1405580627232957 -0.20965463092509834 -5.16250456905305 3.986524432668921 -0.20808283364234917 0.5360398628083591 0.6345794288509562 -0.6983770242368719 -1.871002470521467 -0.2430387279582695 -0.5704291182274329 -0.34065525796756285 0.16238246479261698 -0.11991752453620809 -6.885406980584073 -0.04913413973325032 0.028185202496880744 0.7492371741177256 -0.6543115251980057 -0.4357291433366131 -1.8252666700654154 0.05311614001936776 0.20531148438661648 -0.3683892410923996 0.5207132384759678 -0.20486405363512777 -22.16373333780689 -25.684253600199703 -20.012534522860108 -4.144872123291911 44.22599397020949 4.692056506948204 -2.9416674932063462 -7.480552952592195 -7.092659679438001 0.5688281325581525 -0.7319100514104611 -0.058807661949545335 26.143314029410845 -24.80597665030069 22.27820560074901 3.420573250494372 44.141408907528046 -4.281382418477902 4.259130515935647 -6.4943321199371224 9.439727829213238
-3.7293262779712677 49.51512813568115 0.07038302719593048 -4.772226279218052 3.821317524571945 1.9190265977928844 -1.3491736700549657 12.193588385576094 3.0010369915759783 2.6938067584157537 -7.488042255017114 1.0512598149226384 -3.6177313566418445 12.014061985884187 -2.170175855225427 6.605878073706716 -19.882878749393047 -3.698952124270228 0.30037045539728385 -0.026908384008911483 -0.3378794264001873 -0.16621051901814465 0.3881702693415499 0.33357256524167117 0.25056116747283363 0.25438730070765725 0.31930568744768967 37.67684659397525 24.529690375731796 12.601549608285431 -18.656508038633504 -23.112579802210476 51.612700123605705 -3.5062490090088962 -9.128039830402521 -3.825559072046523 0.09664237427892026 -0.08532400377226866 0.15828114963943588 -0.24792770266097058 0.5923244635506724 0.8851976390755301 -0.02412458833424205 -0.12471920088357995 0.09575651741986813 6.117766288634571 3.7219182084675726 0.6592242454802432 0.540984599602331 -0.3919371720296648 0.13004912299414353 2.127822279069001 1.1695691500744259 -0.462526963658335 -0.21953231176455326 -0.37980680942457506 0.016214720679738167 7.874702679026121 0.08747636713446894 -0.5505999584889751 0.10757746711947101 -0.1274753689766652 0.5632056595716155 1.8648328887102414 -0.2437078196926663 -0.16916684367042303 0.25568156819452176 0.4141167172554003 -0.011363780592461604 -45.671162960841215 24.86350221103783 -19.86771743698291 18.500923159529783 -22.171533413839043 -49.0827707342763 3.811496566319113 -10.317762307396716 3.3298179656714737 0.4885557473681958 0.08102293226629115 0.16769026882965735 0.040758166696272614 0.5084213525691779 0.13475280213518157 0.24119222900483886 -0.1300282855810897 -0.02669510067990726 -5.651219118319449 4.323681780007791 -0.258408201055532 0.45598524325904954 0.5437275608843258 -0.5106207802036278 -2.075204636137338 0.08299586976064635 -0.3119763608597371 -0.27597085856745623 0.07568580644058731 -0.0654617069441658 -7.658600616328795 0.2386359239862558 -0.008220986439756597 0.6031319038908952 -0.49980949788199674 -0.3450598762085748 -1.9626179322929636 -0.13972859494553586 0.24981673021415512 -0.17535432804779347 0.3881150942196609 -0.1369110885520527 -24.59691992773223 -28.367134830707787 -22.003461241385246 -4.638539413480216 48.89234164512176 5.135829265249566 -3.3540273577411726 -8.167978195381774 -8.054888191972935 0.4985447389467808 -0.5910698431775057 -0.03487342511777772 29.04831642682233 -27.11503138225022 24.494742005296132 3.8906802300275403 48.84648033993971 -4.893580384635785 4.507460399344855 -7.281464891117371 10.425190937757263
